<?xml version="1.0" encoding="UTF-8" standalone="no"?>
<!-- Created with Inkscape (http://www.inkscape.org/) -->
<svg
   xmlns:dc="http://purl.org/dc/elements/1.1/"
   xmlns:cc="http://creativecommons.org/ns#"
   xmlns:rdf="http://www.w3.org/1999/02/22-rdf-syntax-ns#"
   xmlns:svg="http://www.w3.org/2000/svg"
   xmlns="http://www.w3.org/2000/svg"
   xmlns:sodipodi="http://sodipodi.sourceforge.net/DTD/sodipodi-0.dtd"
   xmlns:inkscape="http://www.inkscape.org/namespaces/inkscape"
   width="360"
   height="75"
   id="svg2"
   sodipodi:version="0.32"
   inkscape:version="0.46"
   sodipodi:docname="logo.svg"
   version="1.0"
   inkscape:output_extension="org.inkscape.output.svg.inkscape">
  <sodipodi:namedview
     id="base"
     pagecolor="#ffffff"
     bordercolor="#666666"
     borderopacity="1.0"
     gridtolerance="10000"
     guidetolerance="10"
     objecttolerance="10"
     inkscape:pageopacity="0.0"
     inkscape:pageshadow="2"
     inkscape:zoom="1.4"
     inkscape:cx="77.661383"
     inkscape:cy="58.437716"
     inkscape:document-units="px"
     inkscape:current-layer="layer4"
     showgrid="false"
     inkscape:window-width="1280"
     inkscape:window-height="1002"
     inkscape:window-x="1024"
     inkscape:window-y="0" />
  <defs
     id="defs4">
    <inkscape:perspective
       id="perspective10"
       inkscape:persp3d-origin="372.04724 : 350.78739 : 1"
       inkscape:vp_z="744.09448 : 526.18109 : 1"
       inkscape:vp_y="0 : 1000 : 0"
       inkscape:vp_x="0 : 526.18109 : 1"
       sodipodi:type="inkscape:persp3d" />
    <inkscape:perspective
       id="perspective2857"
       inkscape:persp3d-origin="372.04724 : 350.78739 : 1"
       inkscape:vp_z="744.09448 : 526.18109 : 1"
       inkscape:vp_y="0 : 1000 : 0"
       inkscape:vp_x="0 : 526.18109 : 1"
       sodipodi:type="inkscape:persp3d" />
    <filter
       inkscape:collect="always"
       id="filter5924"
       x="-0.019761876"
       width="1.0395238"
       y="-0.10917721"
       height="1.2183544">
      <feGaussianBlur
         inkscape:collect="always"
         stdDeviation="2.8028142"
         id="feGaussianBlur5926" />
    </filter>
    <filter
       inkscape:collect="always"
       id="filter3477"
       x="-0.6"
       width="2.2"
       y="-0.6"
       height="2.2">
      <feGaussianBlur
         inkscape:collect="always"
         stdDeviation="1.6414979"
         id="feGaussianBlur3479" />
    </filter>
  </defs>
  <metadata
     id="metadata7">
    <rdf:RDF>
      <cc:Work
         rdf:about="">
        <dc:format>image/svg+xml</dc:format>
        <dc:type
           rdf:resource="http://purl.org/dc/dcmitype/StillImage" />
      </cc:Work>
    </rdf:RDF>
  </metadata>
  <g
     id="layer1"
     inkscape:groupmode="layer"
     inkscape:label="background"
     style="display:inline"
     sodipodi:insensitive="true">
    <rect
       style="fill:#3c90e8;fill-opacity:1;stroke:none;stroke-width:3;stroke-miterlimit:4;stroke-dasharray:none;stroke-opacity:1"
       id="rect2865"
       width="360"
       height="75"
       x="0"
       y="3.9968029e-15" />
    <path
       style="fill:#000000"
       d=""
       id="path2863" />
  </g>
  <g
     inkscape:groupmode="layer"
     id="layer4"
     inkscape:label="glow">
    <path
       sodipodi:type="arc"
       style="fill:#b2ff14;fill-opacity:1;stroke:none;stroke-width:3;stroke-miterlimit:4;stroke-dasharray:none;stroke-opacity:1;display:inline;filter:url(#filter3477)"
       id="path3204"
       sodipodi:cx="151.39661"
       sodipodi:cy="7.1303754"
       sodipodi:rx="3.2829957"
       sodipodi:ry="3.2829957"
       d="M 154.6796,7.1303754 A 3.2829957,3.2829957 0 1 1 148.11361,7.1303754 A 3.2829957,3.2829957 0 1 1 154.6796,7.1303754 z"
       transform="matrix(3.048077,0,0,3.048077,-387.43063,-5.8431764)" />
  </g>
  <g
     inkscape:groupmode="layer"
     id="layer2"
     inkscape:label="Logo"
     style="display:inline">
    <g
       style="display:inline"
       id="g4525"
       transform="translate(-5.5725e-2,1.3405102)">
      <path
         id="path4523"
         d="M 19.941037,24.429198 L 12.862601,24.429198 L 12.862601,44.310372 C 12.86259,46.444169 13.601209,48.249687 15.078459,49.726915 L 19.879486,54.527941 L 18.032937,56.37449 L 13.23191,51.635015 C 11.221217,49.665374 10.21587,47.22383 10.215881,44.310372 L 10.215881,9.5337057 L 12.862601,9.5337057 L 12.862601,21.84403 L 19.941037,21.84403 L 19.941037,24.429198"
         style="font-size:36px;font-style:normal;font-weight:normal;fill:#ffffff;fill-opacity:1;stroke:none;stroke-width:1px;stroke-linecap:butt;stroke-linejoin:miter;stroke-opacity:1;font-family:Bitstream Vera Sans" />
      <path
         id="path4521"
         d="M 64.615038,23.75213 L 62.953144,25.414024 C 61.43483,26.932327 60.675701,28.758355 60.675734,30.892118 L 60.675734,49.480708 C 60.675701,51.368299 59.998633,52.989151 58.64453,54.343286 C 57.331393,55.697422 55.71054,56.37449 53.781952,56.37449 L 48.36541,56.37449 C 45.985395,56.37449 44.138847,55.410185 42.825764,53.481564 C 41.430575,55.410185 39.563506,56.37449 37.224566,56.37449 L 31.808023,56.37449 C 29.920433,56.37449 28.29957,55.697422 26.945445,54.343286 C 25.59131,52.989151 24.914242,51.368299 24.914242,49.480708 L 24.914242,21.84403 L 27.560962,21.84403 L 27.560962,49.480708 C 27.560962,50.629679 27.971302,51.635026 28.791994,52.496738 C 29.653706,53.31743 30.659052,53.72777 31.808023,53.72777 L 37.224566,53.72777 C 38.414546,53.72777 39.419893,53.31743 40.240596,52.496738 C 41.061266,51.635026 41.471606,50.629679 41.471628,49.480708 L 41.471628,21.84403 L 44.118348,21.84403 L 44.118348,49.480708 C 44.118326,50.629679 44.528666,51.635026 45.34938,52.496738 C 46.211081,53.31743 47.216417,53.72777 48.36541,53.72777 L 53.781952,53.72777 C 54.971921,53.72777 55.977257,53.31743 56.797982,52.496738 C 57.61863,51.635026 58.028981,50.629679 58.029014,49.480708 L 58.029014,30.892118 C 58.028981,28.060777 59.054838,25.619233 61.106595,23.567475 L 62.768489,21.905582 L 64.615038,23.75213"
         style="font-size:36px;font-style:normal;font-weight:normal;fill:#ffffff;fill-opacity:1;stroke:none;stroke-width:1px;stroke-linecap:butt;stroke-linejoin:miter;stroke-opacity:1;font-family:Bitstream Vera Sans" />
      <path
         id="path4519"
         d="M 78.944089,14.211629 C 78.944078,15.483736 78.472186,16.591665 77.528402,17.535417 C 76.215297,18.848554 75.558739,20.633551 75.55875,22.890408 L 75.55875,56.37449 L 72.973582,56.37449 L 72.973582,22.890408 C 72.973571,20.633551 72.317024,18.848554 71.00393,17.535417 C 70.060134,16.591665 69.588242,15.483736 69.588242,14.211629 C 69.588242,12.898568 70.039614,11.79065 70.942378,10.887841 C 71.886162,9.9441012 72.994091,9.4721981 74.266166,9.4721541 C 75.538229,9.4721981 76.625637,9.9441012 77.528402,10.887841 C 78.472186,11.79065 78.944078,12.898568 78.944089,14.211629"
         style="font-size:36px;font-style:normal;font-weight:normal;fill:#ffffff;fill-opacity:1;stroke:none;stroke-width:1px;stroke-linecap:butt;stroke-linejoin:miter;stroke-opacity:1;font-family:Bitstream Vera Sans" />
      <path
         id="path4517"
         d="M 93.642454,24.429198 L 86.564017,24.429198 L 86.564017,44.310372 C 86.564017,46.444169 87.302626,48.249687 88.779876,49.726915 L 93.580902,54.527941 L 91.734353,56.37449 L 86.933327,51.635015 C 84.922633,49.665374 83.917297,47.22383 83.917297,44.310372 L 83.917297,9.5337057 L 86.564017,9.5337057 L 86.564017,21.84403 L 93.642454,21.84403 L 93.642454,24.429198"
         style="font-size:36px;font-style:normal;font-weight:normal;fill:#ffffff;fill-opacity:1;stroke:none;stroke-width:1px;stroke-linecap:butt;stroke-linejoin:miter;stroke-opacity:1;font-family:Bitstream Vera Sans" />
      <path
         id="path4515"
         d="M 108.34082,24.429198 L 101.26238,24.429198 L 101.26238,44.310372 C 101.26237,46.444169 102.00099,48.249687 103.47824,49.726915 L 108.27927,54.527941 L 106.43272,56.37449 L 101.63169,51.635015 C 99.621002,49.665374 98.615652,47.22383 98.615662,44.310372 L 98.615662,9.5337057 L 101.26238,9.5337057 L 101.26238,21.84403 L 108.34082,21.84403 L 108.34082,24.429198"
         style="font-size:36px;font-style:normal;font-weight:normal;fill:#ffffff;fill-opacity:1;stroke:none;stroke-width:1px;stroke-linecap:butt;stroke-linejoin:miter;stroke-opacity:1;font-family:Bitstream Vera Sans" />
      <path
         id="path4513"
         d="M 132.51814,34.769871 C 132.51812,37.642298 131.51277,40.083842 129.50211,42.094514 L 122.11591,49.419157 L 120.26937,47.572608 L 127.65556,40.186413 C 129.13278,38.709196 129.8714,36.903678 129.87142,34.769871 L 129.87142,28.737812 C 129.8714,27.547843 129.46106,26.542507 128.64039,25.721782 C 127.81968,24.901123 126.81434,24.490783 125.62436,24.49075 L 120.20781,24.49075 C 119.05884,24.490783 118.0535,24.901123 117.19178,25.721782 C 116.37109,26.542507 115.96075,27.547843 115.96075,28.737812 L 115.96075,49.480708 C 115.96075,50.629679 116.37109,51.635026 117.19178,52.496738 C 118.0535,53.31743 119.05884,53.72777 120.20781,53.72777 L 129.87142,53.72777 L 129.87142,56.37449 L 120.20781,56.37449 C 118.32022,56.37449 116.69936,55.697422 115.34524,54.343286 C 113.9911,52.989151 113.31403,51.368299 113.31403,49.480708 L 113.31403,28.737812 C 113.31403,26.809224 113.9911,25.188371 115.34524,23.875234 C 116.69936,22.521131 118.32022,21.844063 120.20781,21.84403 L 125.62436,21.84403 C 127.55296,21.844063 129.17382,22.521131 130.48693,23.875234 C 131.84105,25.188371 132.51812,26.809224 132.51814,28.737812 L 132.51814,34.769871"
         style="font-size:36px;font-style:normal;font-weight:normal;fill:#ffffff;fill-opacity:1;stroke:none;stroke-width:1px;stroke-linecap:butt;stroke-linejoin:miter;stroke-opacity:1;font-family:Bitstream Vera Sans" />
      <path
         id="path4511"
         d="M 149.98633,23.690579 L 142.41548,31.261428 C 140.8972,32.779731 140.13807,34.605759 140.13807,36.739522 L 140.13807,56.37449 L 137.49135,56.37449 L 137.49135,36.739522 C 137.49135,33.867139 138.49668,31.425595 140.50738,29.41488 L 148.07823,21.84403 L 149.98633,23.690579"
         style="font-size:36px;font-style:normal;font-weight:normal;fill:#ffffff;fill-opacity:1;stroke:none;stroke-width:1px;stroke-linecap:butt;stroke-linejoin:miter;stroke-opacity:1;font-family:Bitstream Vera Sans" />
      <path
         id="path4509"
         d="M 164.31537,14.211629 C 164.31536,15.483736 163.84347,16.591665 162.89969,17.535417 C 161.58658,18.848554 160.93002,20.633551 160.93003,22.890408 L 160.93003,56.37449 L 158.34487,56.37449 L 158.34487,22.890408 C 158.34486,20.633551 157.68831,18.848554 156.37521,17.535417 C 155.43142,16.591665 154.95953,15.483736 154.95953,14.211629 C 154.95953,12.898568 155.4109,11.79065 156.31366,10.887841 C 157.25745,9.9441012 158.36538,9.4721981 159.63745,9.4721541 C 160.90951,9.4721981 161.99692,9.9441012 162.89969,10.887841 C 163.84347,11.79065 164.31536,12.898568 164.31537,14.211629"
         style="font-size:36px;font-style:normal;font-weight:normal;fill:#ffffff;fill-opacity:1;stroke:none;stroke-width:1px;stroke-linecap:butt;stroke-linejoin:miter;stroke-opacity:1;font-family:Bitstream Vera Sans" />
      <path
         id="path4507"
         d="M 188.49268,47.449505 C 188.49266,50.321921 187.48731,52.763465 185.47665,54.774148 L 183.81476,56.436041 L 181.90666,54.589493 L 183.6301,52.866047 C 185.10732,51.388819 185.84594,49.583302 185.84596,47.449505 L 185.84596,28.737812 C 185.84594,27.547843 185.4356,26.542507 184.61493,25.721782 C 183.79422,24.901123 182.78888,24.490783 181.5989,24.49075 L 176.18236,24.49075 C 175.03338,24.490783 174.02804,24.901123 173.16633,25.721782 C 172.34563,26.542507 171.93529,27.547843 171.93529,28.737812 L 171.93529,56.37449 L 169.28857,56.37449 L 169.28857,28.737812 C 169.28857,26.809224 169.96564,25.188371 171.31978,23.875234 C 172.6739,22.521131 174.29476,21.844063 176.18236,21.84403 L 181.5989,21.84403 C 183.5275,21.844063 185.14836,22.521131 186.46148,23.875234 C 187.81559,25.188371 188.49266,26.809224 188.49268,28.737812 L 188.49268,47.449505"
         style="font-size:36px;font-style:normal;font-weight:normal;fill:#ffffff;fill-opacity:1;stroke:none;stroke-width:1px;stroke-linecap:butt;stroke-linejoin:miter;stroke-opacity:1;font-family:Bitstream Vera Sans" />
      <path
         id="path4505"
         d="M 212.67,56.37449 C 212.66998,59.246895 211.66464,61.688439 209.65398,63.699133 L 202.26778,71.085327 L 200.42123,69.177227 L 207.80743,61.852584 C 209.28464,60.375345 210.02326,58.549317 210.02329,56.37449 L 210.02329,28.737812 C 210.02326,27.547843 209.61292,26.542507 208.79225,25.721782 C 207.97155,24.901123 206.9662,24.490783 205.77622,24.49075 L 200.35968,24.49075 C 199.21071,24.490783 198.20536,24.901123 197.34365,25.721782 C 196.52296,26.542507 196.11262,27.547843 196.11262,28.737812 L 196.11262,41.725204 C 196.11262,43.859012 196.85123,45.664519 198.32848,47.141747 L 205.71467,54.527941 L 203.86812,56.37449 L 196.48193,49.049847 C 194.47123,47.039175 193.4659,44.597631 193.4659,41.725204 L 193.4659,28.737812 C 193.4659,26.809224 194.14297,25.188371 195.4971,23.875234 C 196.85123,22.521131 198.47209,21.844063 200.35968,21.84403 L 205.77622,21.84403 C 207.70482,21.844063 209.32569,22.521131 210.6388,23.875234 C 211.99292,25.188371 212.66998,26.809224 212.67,28.737812 L 212.67,56.37449"
         style="font-size:36px;font-style:normal;font-weight:normal;fill:#ffffff;fill-opacity:1;stroke:none;stroke-width:1px;stroke-linecap:butt;stroke-linejoin:miter;stroke-opacity:1;font-family:Bitstream Vera Sans" />
      <path
         id="path4503"
         d="M 237.33972,34.215906 L 217.6432,34.215906 L 217.6432,31.569186 L 237.33972,31.569186 L 237.33972,34.215906"
         style="font-size:36px;font-style:normal;font-weight:normal;fill:#ffffff;fill-opacity:1;stroke:none;stroke-width:1px;stroke-linecap:butt;stroke-linejoin:miter;stroke-opacity:1;font-family:Bitstream Vera Sans" />
      <path
         id="path4501"
         d="M 278.07443,47.449505 C 278.07439,50.321921 277.06905,52.763465 275.0584,54.774148 L 273.3965,56.436041 L 271.4884,54.589493 L 273.21185,52.866047 C 274.68905,51.388819 275.42767,49.583302 275.42771,47.449505 L 275.42771,28.737812 C 275.42767,27.547843 275.01732,26.542507 274.19667,25.721782 C 273.37595,24.901123 272.37061,24.490783 271.18064,24.49075 L 265.7641,24.49075 C 264.61511,24.490783 263.60977,24.901123 262.74807,25.721782 C 261.92736,26.542507 261.51702,27.547843 261.51704,28.737812 L 261.51704,56.37449 L 258.87032,56.37449 L 258.87032,28.737812 C 258.8703,27.547843 258.45996,26.542507 257.63929,25.721782 C 256.81858,24.901123 255.81324,24.490783 254.62326,24.49075 L 249.20672,24.49075 C 248.05774,24.490783 247.0524,24.901123 246.19069,25.721782 C 245.36999,26.542507 244.95965,27.547843 244.95965,28.737812 L 244.95965,56.37449 L 242.31293,56.37449 L 242.31293,28.737812 C 242.31293,26.809224 242.99,25.188371 244.34414,23.875234 C 245.69826,22.521131 247.31913,21.844063 249.20672,21.84403 L 254.62326,21.84403 C 257.00324,21.844063 258.84979,22.808379 260.1629,24.736956 C 261.55805,22.808379 263.42512,21.844063 265.7641,21.84403 L 271.18064,21.84403 C 273.10923,21.844063 274.73008,22.521131 276.04322,23.875234 C 277.39733,25.188371 278.07439,26.809224 278.07443,28.737812 L 278.07443,47.449505"
         style="font-size:36px;font-style:normal;font-weight:normal;fill:#ffffff;fill-opacity:1;stroke:none;stroke-width:1px;stroke-linecap:butt;stroke-linejoin:miter;stroke-opacity:1;font-family:Bitstream Vera Sans" />
      <g
         transform="matrix(1.0991361,0,0,1.0991361,-189.33997,-644.35655)"
         id="g4499"
         style="fill:#ffffff;fill-opacity:1">
        <path
           style="font-size:36px;font-style:normal;font-weight:normal;fill:#ffffff;fill-opacity:1;stroke:none;stroke-width:1px;stroke-linecap:butt;stroke-linejoin:miter;stroke-opacity:1;font-family:Bitstream Vera Sans"
           d="M 447.25282,631.25691 C 447.2528,632.97425 446.6368,634.44891 445.40482,635.68091 C 444.21013,636.91291 442.73547,637.52891 440.98082,637.52891 L 436.05282,637.52891 C 434.33548,637.52891 432.86081,636.91291 431.62882,635.68091 C 430.39681,634.44891 429.78081,632.97425 429.78082,631.25691 L 429.78082,612.38491 C 429.78081,610.63027 430.39681,609.15561 431.62882,607.96091 C 432.86081,606.72894 434.33548,606.11294 436.05282,606.11291 L 440.98082,606.11291 C 442.73547,606.11294 444.21013,606.72894 445.40482,607.96091 C 446.6368,609.15561 447.2528,610.63027 447.25282,612.38491 L 447.25282,631.25691"
           id="path4497" />
        <path
           style="font-size:36px;font-style:normal;font-weight:normal;fill:#ffffff;fill-opacity:1;stroke:none;stroke-width:1px;stroke-linecap:butt;stroke-linejoin:miter;stroke-opacity:1;font-family:Bitstream Vera Sans"
           d="M 444.84482,631.25691 L 444.84482,612.38491 C 444.8448,611.30227 444.47147,610.38761 443.72482,609.64091 C 442.97813,608.89427 442.06347,608.52094 440.98082,608.52091 L 436.05282,608.52091 C 435.00747,608.52094 434.09281,608.89427 433.30882,609.64091 C 432.56214,610.38761 432.18881,611.30227 432.18882,612.38491 L 432.18882,631.25691 C 432.18881,632.30225 432.56214,633.21692 433.30882,634.00091 C 434.09281,634.74758 435.00747,635.12091 436.05282,635.12091 L 440.98082,635.12091 C 442.06347,635.12091 442.97813,634.74758 443.72482,634.00091 C 444.47147,633.21692 444.8448,632.30225 444.84482,631.25691"
           id="path4495" />
      </g>
      <path
         id="path4493"
         d="M 326.42906,49.480708 C 326.42904,51.368299 325.75197,52.989151 324.39785,54.343286 C 323.08473,55.697422 321.46388,56.37449 319.53528,56.37449 L 314.11873,56.37449 C 312.23114,56.37449 310.61028,55.697422 309.25616,54.343286 C 307.90201,52.989151 307.22494,51.368299 307.22495,49.480708 L 307.22495,36.739522 C 307.22494,33.867139 308.23029,31.425595 310.24098,29.41488 L 317.87338,21.782478 L 319.71993,23.629027 L 312.08753,31.261428 C 310.61028,32.738689 309.87166,34.564728 309.87167,36.739522 L 309.87167,49.480708 C 309.87166,50.629679 310.282,51.635026 311.1027,52.496738 C 311.96442,53.31743 312.96975,53.72777 314.11873,53.72777 L 319.53528,53.72777 C 320.72526,53.72777 321.73059,53.31743 322.55131,52.496738 C 323.37198,51.635026 323.78232,50.629679 323.78234,49.480708 L 323.78234,9.4721541 L 326.42906,9.4721541 L 326.42906,49.480708"
         style="font-size:36px;font-style:normal;font-weight:normal;fill:#ffffff;fill-opacity:1;stroke:none;stroke-width:1px;stroke-linecap:butt;stroke-linejoin:miter;stroke-opacity:1;font-family:Bitstream Vera Sans" />
      <path
         id="path4491"
         d="M 350.60635,34.769871 C 350.60633,37.642298 349.60098,40.083842 347.59032,42.094514 L 340.20413,49.419157 L 338.35758,47.572608 L 345.74377,40.186413 C 347.22099,38.709196 347.95961,36.903678 347.95963,34.769871 L 347.95963,28.737812 C 347.95961,27.547843 347.54927,26.542507 346.7286,25.721782 C 345.90789,24.901123 344.90255,24.490783 343.71257,24.49075 L 338.29603,24.49075 C 337.14705,24.490783 336.14171,24.901123 335.28,25.721782 C 334.4593,26.542507 334.04896,27.547843 334.04897,28.737812 L 334.04897,49.480708 C 334.04896,50.629679 334.4593,51.635026 335.28,52.496738 C 336.14171,53.31743 337.14705,53.72777 338.29603,53.72777 L 347.95963,53.72777 L 347.95963,56.37449 L 338.29603,56.37449 C 336.40844,56.37449 334.78758,55.697422 333.43345,54.343286 C 332.0793,52.989151 331.40224,51.368299 331.40225,49.480708 L 331.40225,28.737812 C 331.40224,26.809224 332.0793,25.188371 333.43345,23.875234 C 334.78758,22.521131 336.40844,21.844063 338.29603,21.84403 L 343.71257,21.84403 C 345.64117,21.844063 347.26202,22.521131 348.57515,23.875234 C 349.92926,25.188371 350.60633,26.809224 350.60635,28.737812 L 350.60635,34.769871"
         style="font-size:36px;font-style:normal;font-weight:normal;fill:#ffffff;fill-opacity:1;stroke:none;stroke-width:1px;stroke-linecap:butt;stroke-linejoin:miter;stroke-opacity:1;font-family:Bitstream Vera Sans" />
    </g>
    <g
       transform="translate(-5.5725e-2,1.3405102)"
       id="g5848"
       style="display:inline;filter:url(#filter5924)">
      <path
         style="font-size:36px;font-style:normal;font-weight:normal;fill:#ffffff;fill-opacity:1;stroke:none;stroke-width:1px;stroke-linecap:butt;stroke-linejoin:miter;stroke-opacity:1;font-family:Bitstream Vera Sans"
         d="M 19.941037,24.429198 L 12.862601,24.429198 L 12.862601,44.310372 C 12.86259,46.444169 13.601209,48.249687 15.078459,49.726915 L 19.879486,54.527941 L 18.032937,56.37449 L 13.23191,51.635015 C 11.221217,49.665374 10.21587,47.22383 10.215881,44.310372 L 10.215881,9.5337057 L 12.862601,9.5337057 L 12.862601,21.84403 L 19.941037,21.84403 L 19.941037,24.429198"
         id="path5850" />
      <path
         style="font-size:36px;font-style:normal;font-weight:normal;fill:#ffffff;fill-opacity:1;stroke:none;stroke-width:1px;stroke-linecap:butt;stroke-linejoin:miter;stroke-opacity:1;font-family:Bitstream Vera Sans"
         d="M 64.615038,23.75213 L 62.953144,25.414024 C 61.43483,26.932327 60.675701,28.758355 60.675734,30.892118 L 60.675734,49.480708 C 60.675701,51.368299 59.998633,52.989151 58.64453,54.343286 C 57.331393,55.697422 55.71054,56.37449 53.781952,56.37449 L 48.36541,56.37449 C 45.985395,56.37449 44.138847,55.410185 42.825764,53.481564 C 41.430575,55.410185 39.563506,56.37449 37.224566,56.37449 L 31.808023,56.37449 C 29.920433,56.37449 28.29957,55.697422 26.945445,54.343286 C 25.59131,52.989151 24.914242,51.368299 24.914242,49.480708 L 24.914242,21.84403 L 27.560962,21.84403 L 27.560962,49.480708 C 27.560962,50.629679 27.971302,51.635026 28.791994,52.496738 C 29.653706,53.31743 30.659052,53.72777 31.808023,53.72777 L 37.224566,53.72777 C 38.414546,53.72777 39.419893,53.31743 40.240596,52.496738 C 41.061266,51.635026 41.471606,50.629679 41.471628,49.480708 L 41.471628,21.84403 L 44.118348,21.84403 L 44.118348,49.480708 C 44.118326,50.629679 44.528666,51.635026 45.34938,52.496738 C 46.211081,53.31743 47.216417,53.72777 48.36541,53.72777 L 53.781952,53.72777 C 54.971921,53.72777 55.977257,53.31743 56.797982,52.496738 C 57.61863,51.635026 58.028981,50.629679 58.029014,49.480708 L 58.029014,30.892118 C 58.028981,28.060777 59.054838,25.619233 61.106595,23.567475 L 62.768489,21.905582 L 64.615038,23.75213"
         id="path5852" />
      <path
         style="font-size:36px;font-style:normal;font-weight:normal;fill:#ffffff;fill-opacity:1;stroke:none;stroke-width:1px;stroke-linecap:butt;stroke-linejoin:miter;stroke-opacity:1;font-family:Bitstream Vera Sans"
         d="M 78.944089,14.211629 C 78.944078,15.483736 78.472186,16.591665 77.528402,17.535417 C 76.215297,18.848554 75.558739,20.633551 75.55875,22.890408 L 75.55875,56.37449 L 72.973582,56.37449 L 72.973582,22.890408 C 72.973571,20.633551 72.317024,18.848554 71.00393,17.535417 C 70.060134,16.591665 69.588242,15.483736 69.588242,14.211629 C 69.588242,12.898568 70.039614,11.79065 70.942378,10.887841 C 71.886162,9.9441012 72.994091,9.4721981 74.266166,9.4721541 C 75.538229,9.4721981 76.625637,9.9441012 77.528402,10.887841 C 78.472186,11.79065 78.944078,12.898568 78.944089,14.211629"
         id="path5854" />
      <path
         style="font-size:36px;font-style:normal;font-weight:normal;fill:#ffffff;fill-opacity:1;stroke:none;stroke-width:1px;stroke-linecap:butt;stroke-linejoin:miter;stroke-opacity:1;font-family:Bitstream Vera Sans"
         d="M 93.642454,24.429198 L 86.564017,24.429198 L 86.564017,44.310372 C 86.564017,46.444169 87.302626,48.249687 88.779876,49.726915 L 93.580902,54.527941 L 91.734353,56.37449 L 86.933327,51.635015 C 84.922633,49.665374 83.917297,47.22383 83.917297,44.310372 L 83.917297,9.5337057 L 86.564017,9.5337057 L 86.564017,21.84403 L 93.642454,21.84403 L 93.642454,24.429198"
         id="path5856" />
      <path
         style="font-size:36px;font-style:normal;font-weight:normal;fill:#ffffff;fill-opacity:1;stroke:none;stroke-width:1px;stroke-linecap:butt;stroke-linejoin:miter;stroke-opacity:1;font-family:Bitstream Vera Sans"
         d="M 108.34082,24.429198 L 101.26238,24.429198 L 101.26238,44.310372 C 101.26237,46.444169 102.00099,48.249687 103.47824,49.726915 L 108.27927,54.527941 L 106.43272,56.37449 L 101.63169,51.635015 C 99.621002,49.665374 98.615652,47.22383 98.615662,44.310372 L 98.615662,9.5337057 L 101.26238,9.5337057 L 101.26238,21.84403 L 108.34082,21.84403 L 108.34082,24.429198"
         id="path5858" />
      <path
         style="font-size:36px;font-style:normal;font-weight:normal;fill:#ffffff;fill-opacity:1;stroke:none;stroke-width:1px;stroke-linecap:butt;stroke-linejoin:miter;stroke-opacity:1;font-family:Bitstream Vera Sans"
         d="M 132.51814,34.769871 C 132.51812,37.642298 131.51277,40.083842 129.50211,42.094514 L 122.11591,49.419157 L 120.26937,47.572608 L 127.65556,40.186413 C 129.13278,38.709196 129.8714,36.903678 129.87142,34.769871 L 129.87142,28.737812 C 129.8714,27.547843 129.46106,26.542507 128.64039,25.721782 C 127.81968,24.901123 126.81434,24.490783 125.62436,24.49075 L 120.20781,24.49075 C 119.05884,24.490783 118.0535,24.901123 117.19178,25.721782 C 116.37109,26.542507 115.96075,27.547843 115.96075,28.737812 L 115.96075,49.480708 C 115.96075,50.629679 116.37109,51.635026 117.19178,52.496738 C 118.0535,53.31743 119.05884,53.72777 120.20781,53.72777 L 129.87142,53.72777 L 129.87142,56.37449 L 120.20781,56.37449 C 118.32022,56.37449 116.69936,55.697422 115.34524,54.343286 C 113.9911,52.989151 113.31403,51.368299 113.31403,49.480708 L 113.31403,28.737812 C 113.31403,26.809224 113.9911,25.188371 115.34524,23.875234 C 116.69936,22.521131 118.32022,21.844063 120.20781,21.84403 L 125.62436,21.84403 C 127.55296,21.844063 129.17382,22.521131 130.48693,23.875234 C 131.84105,25.188371 132.51812,26.809224 132.51814,28.737812 L 132.51814,34.769871"
         id="path5860" />
      <path
         style="font-size:36px;font-style:normal;font-weight:normal;fill:#ffffff;fill-opacity:1;stroke:none;stroke-width:1px;stroke-linecap:butt;stroke-linejoin:miter;stroke-opacity:1;font-family:Bitstream Vera Sans"
         d="M 149.98633,23.690579 L 142.41548,31.261428 C 140.8972,32.779731 140.13807,34.605759 140.13807,36.739522 L 140.13807,56.37449 L 137.49135,56.37449 L 137.49135,36.739522 C 137.49135,33.867139 138.49668,31.425595 140.50738,29.41488 L 148.07823,21.84403 L 149.98633,23.690579"
         id="path5862" />
      <path
         style="font-size:36px;font-style:normal;font-weight:normal;fill:#ffffff;fill-opacity:1;stroke:none;stroke-width:1px;stroke-linecap:butt;stroke-linejoin:miter;stroke-opacity:1;font-family:Bitstream Vera Sans"
         d="M 164.31537,14.211629 C 164.31536,15.483736 163.84347,16.591665 162.89969,17.535417 C 161.58658,18.848554 160.93002,20.633551 160.93003,22.890408 L 160.93003,56.37449 L 158.34487,56.37449 L 158.34487,22.890408 C 158.34486,20.633551 157.68831,18.848554 156.37521,17.535417 C 155.43142,16.591665 154.95953,15.483736 154.95953,14.211629 C 154.95953,12.898568 155.4109,11.79065 156.31366,10.887841 C 157.25745,9.9441012 158.36538,9.4721981 159.63745,9.4721541 C 160.90951,9.4721981 161.99692,9.9441012 162.89969,10.887841 C 163.84347,11.79065 164.31536,12.898568 164.31537,14.211629"
         id="path5864" />
      <path
         style="font-size:36px;font-style:normal;font-weight:normal;fill:#ffffff;fill-opacity:1;stroke:none;stroke-width:1px;stroke-linecap:butt;stroke-linejoin:miter;stroke-opacity:1;font-family:Bitstream Vera Sans"
         d="M 188.49268,47.449505 C 188.49266,50.321921 187.48731,52.763465 185.47665,54.774148 L 183.81476,56.436041 L 181.90666,54.589493 L 183.6301,52.866047 C 185.10732,51.388819 185.84594,49.583302 185.84596,47.449505 L 185.84596,28.737812 C 185.84594,27.547843 185.4356,26.542507 184.61493,25.721782 C 183.79422,24.901123 182.78888,24.490783 181.5989,24.49075 L 176.18236,24.49075 C 175.03338,24.490783 174.02804,24.901123 173.16633,25.721782 C 172.34563,26.542507 171.93529,27.547843 171.93529,28.737812 L 171.93529,56.37449 L 169.28857,56.37449 L 169.28857,28.737812 C 169.28857,26.809224 169.96564,25.188371 171.31978,23.875234 C 172.6739,22.521131 174.29476,21.844063 176.18236,21.84403 L 181.5989,21.84403 C 183.5275,21.844063 185.14836,22.521131 186.46148,23.875234 C 187.81559,25.188371 188.49266,26.809224 188.49268,28.737812 L 188.49268,47.449505"
         id="path5866" />
      <path
         style="font-size:36px;font-style:normal;font-weight:normal;fill:#ffffff;fill-opacity:1;stroke:none;stroke-width:1px;stroke-linecap:butt;stroke-linejoin:miter;stroke-opacity:1;font-family:Bitstream Vera Sans"
         d="M 212.67,56.37449 C 212.66998,59.246895 211.66464,61.688439 209.65398,63.699133 L 202.26778,71.085327 L 200.42123,69.177227 L 207.80743,61.852584 C 209.28464,60.375345 210.02326,58.549317 210.02329,56.37449 L 210.02329,28.737812 C 210.02326,27.547843 209.61292,26.542507 208.79225,25.721782 C 207.97155,24.901123 206.9662,24.490783 205.77622,24.49075 L 200.35968,24.49075 C 199.21071,24.490783 198.20536,24.901123 197.34365,25.721782 C 196.52296,26.542507 196.11262,27.547843 196.11262,28.737812 L 196.11262,41.725204 C 196.11262,43.859012 196.85123,45.664519 198.32848,47.141747 L 205.71467,54.527941 L 203.86812,56.37449 L 196.48193,49.049847 C 194.47123,47.039175 193.4659,44.597631 193.4659,41.725204 L 193.4659,28.737812 C 193.4659,26.809224 194.14297,25.188371 195.4971,23.875234 C 196.85123,22.521131 198.47209,21.844063 200.35968,21.84403 L 205.77622,21.84403 C 207.70482,21.844063 209.32569,22.521131 210.6388,23.875234 C 211.99292,25.188371 212.66998,26.809224 212.67,28.737812 L 212.67,56.37449"
         id="path5868" />
      <path
         style="font-size:36px;font-style:normal;font-weight:normal;fill:#ffffff;fill-opacity:1;stroke:none;stroke-width:1px;stroke-linecap:butt;stroke-linejoin:miter;stroke-opacity:1;font-family:Bitstream Vera Sans"
         d="M 237.33972,34.215906 L 217.6432,34.215906 L 217.6432,31.569186 L 237.33972,31.569186 L 237.33972,34.215906"
         id="path5870" />
      <path
         style="font-size:36px;font-style:normal;font-weight:normal;fill:#ffffff;fill-opacity:1;stroke:none;stroke-width:1px;stroke-linecap:butt;stroke-linejoin:miter;stroke-opacity:1;font-family:Bitstream Vera Sans"
         d="M 278.07443,47.449505 C 278.07439,50.321921 277.06905,52.763465 275.0584,54.774148 L 273.3965,56.436041 L 271.4884,54.589493 L 273.21185,52.866047 C 274.68905,51.388819 275.42767,49.583302 275.42771,47.449505 L 275.42771,28.737812 C 275.42767,27.547843 275.01732,26.542507 274.19667,25.721782 C 273.37595,24.901123 272.37061,24.490783 271.18064,24.49075 L 265.7641,24.49075 C 264.61511,24.490783 263.60977,24.901123 262.74807,25.721782 C 261.92736,26.542507 261.51702,27.547843 261.51704,28.737812 L 261.51704,56.37449 L 258.87032,56.37449 L 258.87032,28.737812 C 258.8703,27.547843 258.45996,26.542507 257.63929,25.721782 C 256.81858,24.901123 255.81324,24.490783 254.62326,24.49075 L 249.20672,24.49075 C 248.05774,24.490783 247.0524,24.901123 246.19069,25.721782 C 245.36999,26.542507 244.95965,27.547843 244.95965,28.737812 L 244.95965,56.37449 L 242.31293,56.37449 L 242.31293,28.737812 C 242.31293,26.809224 242.99,25.188371 244.34414,23.875234 C 245.69826,22.521131 247.31913,21.844063 249.20672,21.84403 L 254.62326,21.84403 C 257.00324,21.844063 258.84979,22.808379 260.1629,24.736956 C 261.55805,22.808379 263.42512,21.844063 265.7641,21.84403 L 271.18064,21.84403 C 273.10923,21.844063 274.73008,22.521131 276.04322,23.875234 C 277.39733,25.188371 278.07439,26.809224 278.07443,28.737812 L 278.07443,47.449505"
         id="path5872" />
      <g
         style="fill:#ffffff;fill-opacity:1"
         id="g5874"
         transform="matrix(1.0991361,0,0,1.0991361,-189.33997,-644.35655)">
        <path
           id="path5876"
           d="M 447.25282,631.25691 C 447.2528,632.97425 446.6368,634.44891 445.40482,635.68091 C 444.21013,636.91291 442.73547,637.52891 440.98082,637.52891 L 436.05282,637.52891 C 434.33548,637.52891 432.86081,636.91291 431.62882,635.68091 C 430.39681,634.44891 429.78081,632.97425 429.78082,631.25691 L 429.78082,612.38491 C 429.78081,610.63027 430.39681,609.15561 431.62882,607.96091 C 432.86081,606.72894 434.33548,606.11294 436.05282,606.11291 L 440.98082,606.11291 C 442.73547,606.11294 444.21013,606.72894 445.40482,607.96091 C 446.6368,609.15561 447.2528,610.63027 447.25282,612.38491 L 447.25282,631.25691"
           style="font-size:36px;font-style:normal;font-weight:normal;fill:#ffffff;fill-opacity:1;stroke:none;stroke-width:1px;stroke-linecap:butt;stroke-linejoin:miter;stroke-opacity:1;font-family:Bitstream Vera Sans" />
        <path
           id="path5878"
           d="M 444.84482,631.25691 L 444.84482,612.38491 C 444.8448,611.30227 444.47147,610.38761 443.72482,609.64091 C 442.97813,608.89427 442.06347,608.52094 440.98082,608.52091 L 436.05282,608.52091 C 435.00747,608.52094 434.09281,608.89427 433.30882,609.64091 C 432.56214,610.38761 432.18881,611.30227 432.18882,612.38491 L 432.18882,631.25691 C 432.18881,632.30225 432.56214,633.21692 433.30882,634.00091 C 434.09281,634.74758 435.00747,635.12091 436.05282,635.12091 L 440.98082,635.12091 C 442.06347,635.12091 442.97813,634.74758 443.72482,634.00091 C 444.47147,633.21692 444.8448,632.30225 444.84482,631.25691"
           style="font-size:36px;font-style:normal;font-weight:normal;fill:#ffffff;fill-opacity:1;stroke:none;stroke-width:1px;stroke-linecap:butt;stroke-linejoin:miter;stroke-opacity:1;font-family:Bitstream Vera Sans" />
      </g>
      <path
         style="font-size:36px;font-style:normal;font-weight:normal;fill:#ffffff;fill-opacity:1;stroke:none;stroke-width:1px;stroke-linecap:butt;stroke-linejoin:miter;stroke-opacity:1;font-family:Bitstream Vera Sans"
         d="M 326.42906,49.480708 C 326.42904,51.368299 325.75197,52.989151 324.39785,54.343286 C 323.08473,55.697422 321.46388,56.37449 319.53528,56.37449 L 314.11873,56.37449 C 312.23114,56.37449 310.61028,55.697422 309.25616,54.343286 C 307.90201,52.989151 307.22494,51.368299 307.22495,49.480708 L 307.22495,36.739522 C 307.22494,33.867139 308.23029,31.425595 310.24098,29.41488 L 317.87338,21.782478 L 319.71993,23.629027 L 312.08753,31.261428 C 310.61028,32.738689 309.87166,34.564728 309.87167,36.739522 L 309.87167,49.480708 C 309.87166,50.629679 310.282,51.635026 311.1027,52.496738 C 311.96442,53.31743 312.96975,53.72777 314.11873,53.72777 L 319.53528,53.72777 C 320.72526,53.72777 321.73059,53.31743 322.55131,52.496738 C 323.37198,51.635026 323.78232,50.629679 323.78234,49.480708 L 323.78234,9.4721541 L 326.42906,9.4721541 L 326.42906,49.480708"
         id="path5880" />
      <path
         style="font-size:36px;font-style:normal;font-weight:normal;fill:#ffffff;fill-opacity:1;stroke:none;stroke-width:1px;stroke-linecap:butt;stroke-linejoin:miter;stroke-opacity:1;font-family:Bitstream Vera Sans"
         d="M 350.60635,34.769871 C 350.60633,37.642298 349.60098,40.083842 347.59032,42.094514 L 340.20413,49.419157 L 338.35758,47.572608 L 345.74377,40.186413 C 347.22099,38.709196 347.95961,36.903678 347.95963,34.769871 L 347.95963,28.737812 C 347.95961,27.547843 347.54927,26.542507 346.7286,25.721782 C 345.90789,24.901123 344.90255,24.490783 343.71257,24.49075 L 338.29603,24.49075 C 337.14705,24.490783 336.14171,24.901123 335.28,25.721782 C 334.4593,26.542507 334.04896,27.547843 334.04897,28.737812 L 334.04897,49.480708 C 334.04896,50.629679 334.4593,51.635026 335.28,52.496738 C 336.14171,53.31743 337.14705,53.72777 338.29603,53.72777 L 347.95963,53.72777 L 347.95963,56.37449 L 338.29603,56.37449 C 336.40844,56.37449 334.78758,55.697422 333.43345,54.343286 C 332.0793,52.989151 331.40224,51.368299 331.40225,49.480708 L 331.40225,28.737812 C 331.40224,26.809224 332.0793,25.188371 333.43345,23.875234 C 334.78758,22.521131 336.40844,21.844063 338.29603,21.84403 L 343.71257,21.84403 C 345.64117,21.844063 347.26202,22.521131 348.57515,23.875234 C 349.92926,25.188371 350.60633,26.809224 350.60635,28.737812 L 350.60635,34.769871"
         id="path5882" />
    </g>
  </g>
  <g
     inkscape:groupmode="layer"
     id="layer3"
     inkscape:label="text"
     style="display:none">
    <text
       id="text2383"
       y="186.61864"
       x="125.66487"
       style="font-size:36px;font-style:normal;font-weight:normal;fill:#000000;fill-opacity:1;stroke:none;stroke-width:1px;stroke-linecap:butt;stroke-linejoin:miter;stroke-opacity:1;font-family:Bitstream Vera Sans"
       xml:space="preserve"><tspan
         style="font-size:56px;font-style:normal;font-variant:normal;font-weight:normal;font-stretch:normal;font-family:SkinnyAL;-inkscape-font-specification:SkinnyAL"
         y="186.61864"
         x="125.66487"
         id="tspan2385"
         sodipodi:role="line">twittering-mode</tspan></text>
  </g>
</svg>
