/* XPM */
static char * unplugged_xpm[] = {
"32 12 9 1",
" 	s None	c None",
".	c tomato",
"X	c #a6caf0",
"o	c #8488ca",
"O	c #5d5d97",
"+	c #8fa5cf",
"@	c #717171",
"#	c #7f8080",
"$	c #9f9f9f",
"          XXX......             ",
"           ...    ...           ",
"          ..O     ....X         ",
"         ..oO    ...+..XX       ",
"   ######.ooO   ...+++.X#####   ",
"   $$$$$o.ooO  ...@+++.X$#$$$   ",
"   $$$$$o.ooO ... @+++.X$#$$$   ",
"   ######.ooO...  @+++.X#####   ",
"         ..o...   @++..@@       ",
"          ....    @@..@         ",
"           ...    ...@          ",
"             ......             "
};
